PathFileType	4	(X/Y/Z)	s10c0403.trc
DataRate	CameraRate	NumFrames	NumMarkers	Units	OrigDataRate	OrigDataStartFrame	OrigNumFrames
200	200	5	49	mm	200	500	2000
Frame#	Time	racr			lacr			c7			jug			rlel			rdr			llel			ldr			s2			lic			ric			lasi			rasi			rpsi			lpsi			rgt			lgt			rth1			rth2			rth3			rth4			rlfc			rmfc			rsh1			rsh2			rsh3			rsh4			rlmal			rmmal			rcal			rtoe			rmt5			lth1			lth2			lth4			lth3			llfc			lmfc			llmal			lcal			lmt5			lsh1			lsh2			lsh3			lsh4			ltoe			SBIKE			LBIKE			RBIKE			
		X1	Y1	Z1	X2	Y2	Z2	X3	Y3	Z3	X4	Y4	Z4	X5	Y5	Z5	X6	Y6	Z6	X7	Y7	Z7	X8	Y8	Z8	X9	Y9	Z9	X10	Y10	Z10	X11	Y11	Z11	X12	Y12	Z12	X13	Y13	Z13	X14	Y14	Z14	X15	Y15	Z15	X16	Y16	Z16	X17	Y17	Z17	X18	Y18	Z18	X19	Y19	Z19	X20	Y20	Z20	X21	Y21	Z21	X22	Y22	Z22	X23	Y23	Z23	X24	Y24	Z24	X25	Y25	Z25	X26	Y26	Z26	X27	Y27	Z27	X28	Y28	Z28	X29	Y29	Z29	X30	Y30	Z30	X31	Y31	Z31	X32	Y32	Z32	X33	Y33	Z33	X34	Y34	Z34	X35	Y35	Z35	X36	Y36	Z36	X37	Y37	Z37	X38	Y38	Z38	X39	Y39	Z39	X40	Y40	Z40	X41	Y41	Z41	X42	Y42	Z42	X43	Y43	Z43	X44	Y44	Z44	X45	Y45	Z45	X46	Y46	Z46	X47	Y47	Z47	X48	Y48	Z48	X49	Y49	Z49	
500	2.5000	634.503437	1321.492551	-22.967351	612.309902	1336.417851	-351.544057	609.533853	1368.891529	-189.140692	606.768190	1222.415465	-191.790402	502.449711	1075.061224	47.617591	614.520866	910.532431	-37.095970	518.677599	1100.544965	-488.419616	623.946642	914.234287	-435.045239	88.535381	1162.104127	-166.031365	237.213994	1180.294967	-339.730721	275.982235	1149.968613	-58.886061	255.033819	1091.170123	-321.861453	283.360757	1067.054864	-73.831557	140.840406	1208.799712	-114.466633	136.835818	1226.044620	-227.743175	186.208625	1040.791801	-0.180793	122.872058	1054.508518	-374.797735	249.095609	910.879275	3.406193	305.801869	848.495482	-25.283241	321.500859	765.721722	-42.791162	335.589118	868.125668	-36.945315	373.698869	676.291839	-74.750142	343.609161	672.316331	-184.884819	314.456459	578.011466	-32.908059	305.982644	490.662838	-46.835144	257.605372	418.754562	-45.552083	331.052834	484.628281	-75.833762	215.144052	324.123926	-57.665558	236.687781	334.940690	-142.624406	158.500130	308.442949	-103.056730	394.590239	251.663783	-105.969106	311.981002	238.173688	-40.721805	194.433483	943.992935	-408.976606	263.751204	892.071179	-405.572280	291.488105	913.929966	-395.982522	298.497952	810.515480	-409.978833	354.798909	716.635240	-408.035507	357.175755	699.167076	-288.004048	18.390397	542.572197	-382.809955	-38.109576	558.265008	-334.243625	30.470076	394.870888	-398.020503	238.765559	672.828143	-431.981810	183.480959	607.796833	-412.657930	98.964182	579.969608	-401.892365	203.178658	585.822711	-387.196976	102.157406	356.038782	-348.171548	-217.218067	831.050665	-213.170488	-103.841153	80.732788	-418.348704	-103.787428	80.619579	-18.201124	
501	2.5050	635.153180	1320.803773	-25.124049	609.254449	1338.570766	-353.417687	608.389673	1369.862484	-190.286444	606.497639	1222.998468	-193.811239	501.866697	1075.132911	45.806539	614.625158	910.135151	-37.868549	519.243787	1100.923918	-488.760956	623.918021	914.229296	-434.862680	88.177178	1158.059900	-164.459865	235.602775	1179.072722	-338.963757	277.155671	1146.855078	-58.334983	254.534879	1089.754841	-321.702777	284.460787	1064.002835	-73.642302	141.563693	1204.435369	-112.316117	135.461722	1222.875383	-225.541051	187.427829	1036.728545	0.841171	122.609533	1050.965395	-373.857999	247.893961	906.812363	3.677648	302.737630	842.729370	-25.243219	316.951117	760.023090	-42.858149	333.076818	862.113224	-36.052315	368.132168	669.857009	-75.111462	338.228769	666.396889	-184.847805	310.038221	571.528777	-33.212580	301.962069	484.022012	-47.226847	254.153581	411.861079	-45.687003	326.853837	478.405747	-76.378220	212.103437	317.594680	-57.728384	233.189828	328.048633	-142.742523	155.383393	302.698700	-103.131318	390.788200	242.651770	-106.138657	308.050177	230.456113	-40.791159	196.624144	942.221635	-408.897058	267.415934	892.289785	-405.282291	294.598402	914.724480	-395.283066	304.679432	812.114000	-410.906542	361.821155	720.246208	-409.162139	365.002276	702.115893	-289.361990	23.324419	549.777750	-383.170895	-33.129879	565.958304	-334.422575	35.071528	402.243375	-398.172379	245.185662	677.642558	-432.984015	189.094690	613.313063	-413.570169	104.264585	586.619902	-402.458321	208.593828	591.097512	-388.259297	106.569991	363.349264	-348.103657	-217.199896	831.216241	-213.412324	-103.837717	80.728442	-418.352754	-103.838942	80.578117	-18.247069	
502	2.5100	635.913872	1320.339775	-27.542454	606.236596	1340.764086	-355.450198	607.156356	1370.628596	-191.791459	606.232332	1223.518000	-195.870055	501.596119	1075.328476	43.948104	614.808313	909.989415	-37.942732	519.826486	1101.291962	-489.037386	623.882512	914.205055	-434.667715	88.217918	1153.898841	-162.733024	233.147346	1177.149249	-336.076699	278.476283	1143.935294	-57.696351	254.048580	1088.390489	-321.614406	285.422283	1060.821116	-73.469622	142.013297	1200.533716	-110.191363	133.959774	1220.746350	-223.760789	188.397461	1033.839250	1.747666	122.148093	1047.552912	-373.226688	246.617193	902.710116	4.148551	299.456063	837.077360	-25.313381	312.134068	754.443248	-42.900445	330.562409	856.040903	-35.515861	362.374922	663.587311	-75.224884	332.822689	660.296092	-184.579820	305.161093	564.958743	-33.419443	297.634907	477.513885	-47.586259	250.396436	404.929067	-45.847075	322.322163	472.169726	-76.912067	208.686727	311.279383	-57.705003	228.346828	320.713518	-141.911428	152.051423	297.200263	-103.129357	386.542148	233.869848	-106.262629	303.695283	222.908804	-40.887456	198.961058	940.838963	-408.712954	271.216668	893.121191	-405.484999	297.727695	916.397954	-395.516658	310.935815	814.167668	-411.870666	368.903752	724.385826	-410.459083	372.905335	705.321002	-290.579385	28.673908	557.029637	-383.489288	-27.811069	573.376826	-334.639192	39.968820	409.367182	-398.282150	251.778951	682.386991	-433.958369	194.967614	618.811848	-414.439748	109.876214	593.162310	-402.996667	214.298471	596.323213	-389.152700	111.308196	370.126796	-347.933581	-217.197672	831.202263	-213.412402	-103.846077	80.719745	-418.424524	-103.859082	80.581841	-18.283853	
503	2.5150	636.817925	1320.131246	-30.285531	603.226104	1343.002375	-357.546344	605.920990	1371.526905	-193.298406	605.828400	1224.091278	-198.115609	501.595918	1075.702500	42.047783	615.054501	909.869121	-38.118960	520.429943	1101.635561	-489.403069	623.834906	914.172155	-434.450610	92.724911	1146.781122	-162.786636	231.445068	1176.004860	-335.199095	279.790896	1141.025454	-57.197552	253.618196	1087.033200	-321.531625	286.432265	1057.902300	-73.190070	141.739839	1197.737999	-110.093164	133.882829	1218.039031	-221.993075	189.085915	1031.261479	2.614801	121.883244	1044.072074	-372.673562	245.028493	898.679610	4.607865	296.314913	831.868577	-25.426026	307.069868	749.014695	-42.789802	327.923123	850.130290	-35.327306	356.283546	657.466016	-75.092467	327.566480	654.482562	-183.943616	299.968095	558.508014	-33.592305	292.972584	470.911441	-48.000787	246.346503	398.057477	-46.087243	317.462090	465.870361	-77.521984	204.937758	305.095716	-57.867428	224.393813	314.267461	-142.123275	148.246124	291.653090	-103.018034	382.021364	225.429923	-106.356539	298.949154	215.819807	-40.998639	201.302772	939.802582	-408.397455	275.069070	894.427305	-405.755077	300.880679	918.348290	-395.649395	317.260228	816.860635	-412.849216	376.078179	729.045593	-411.990888	380.710602	708.739695	-291.750262	34.346843	563.996130	-383.805617	-22.217878	580.740253	-335.086847	45.269082	416.376058	-398.372692	258.555092	687.285122	-434.869586	201.855074	624.866987	-415.976002	115.815373	599.596022	-403.492774	220.352101	601.809595	-389.947002	116.525562	377.019242	-347.976613	-217.065797	831.405039	-213.505970	-103.860636	80.731694	-418.404193	-103.882916	80.569735	-18.280843	
504	2.5200	637.831620	1320.078977	-33.143805	600.289459	1345.238214	-359.684738	604.678989	1372.330077	-195.175742	605.339658	1224.607115	-200.422778	501.905362	1076.316651	40.151954	615.319433	909.791593	-38.380616	521.008319	1101.986582	-489.737029	623.794168	914.159813	-434.237230	85.658973	1147.456776	-159.818523	229.670007	1175.054264	-334.418372	281.117811	1138.578847	-56.073354	253.255646	1085.858740	-321.459587	287.413135	1055.097441	-72.928912	142.291603	1194.263621	-108.117253	133.354647	1215.124188	-219.791171	189.953350	1028.557047	3.537174	121.424433	1040.815253	-371.995348	243.382698	894.404862	5.014094	293.281211	827.059080	-24.491538	302.049971	743.788925	-42.611922	325.058341	844.335425	-34.675241	349.886597	651.508038	-74.844939	321.249841	648.533235	-183.444336	294.217351	552.036510	-33.495742	287.892549	464.573133	-48.443076	241.892457	391.380442	-46.276237	312.240004	459.716450	-78.089600	200.791807	299.148060	-57.865191	219.941952	307.849356	-141.979313	144.070529	286.752601	-103.119100	377.057244	217.479124	-106.369173	293.792026	208.790648	-41.018457	203.797370	939.325534	-407.961027	278.883768	896.217581	-406.014767	304.024577	920.686128	-395.686122	323.366614	820.016163	-413.994327	382.971930	733.699515	-413.201376	387.877881	712.232578	-293.088773	40.304342	570.632182	-384.140782	-16.176865	587.358290	-335.048832	50.976759	423.091996	-398.492894	265.503027	692.209091	-435.773983	207.551252	629.787966	-415.930181	122.072618	605.822791	-403.999939	226.720249	607.067344	-390.818731	122.135558	383.723397	-348.018728	-217.171673	831.182683	-213.369021	-103.881023	80.710984	-418.402788	-103.889651	80.554400	-18.295785	
